<svg data-v-423bf9ae="" xmlns="http://www.w3.org/2000/svg" viewBox="0 0 201.40883229477106 256" class="iconAbove"><!----><!----><!----><g data-v-423bf9ae="" id="2dfb4b58-9a54-4314-a3d4-5e193aee0c95" fill="white" transform="matrix(4.161473751068115,0,0,4.161473751068115,-4.665401458740234,177.22813415527344)"><path d="M5.87 16.84L5.87 16.84L3.28 16.84L3.28 16.84Q1.22 16.84 1.22 15.12L1.22 15.12L1.22 15.12Q1.22 14.18 2.25 13.01L2.25 13.01L2.25 13.01Q1.12 12.18 1.12 10.72L1.12 10.72L1.12 10.72Q1.12 9.48 2.03 8.63L2.03 8.63L2.03 8.63Q2.94 7.78 4.41 7.78L4.41 7.78L4.41 7.78Q5.47 7.78 6.30 8.27L6.30 8.27L6.30 8.27Q6.90 7.73 7.13 6.85L7.13 6.85L7.67 6.99L7.67 6.99Q7.42 7.97 6.75 8.61L6.75 8.61L6.75 8.61Q7.70 9.48 7.70 10.72L7.70 10.72L7.70 10.72Q7.70 11.97 6.79 12.82L6.79 12.82L6.79 12.82Q5.88 13.66 4.41 13.66L4.41 13.66L4.41 13.66Q3.40 13.66 2.66 13.26L2.66 13.26L2.66 13.26Q2.17 13.94 2.17 14.29L2.17 14.29L2.17 14.29Q2.17 14.99 2.98 14.99L2.98 14.99L5.57 14.99L5.57 14.99Q7.63 14.99 7.63 16.51L7.63 16.51L7.63 16.51Q7.63 17.58 6.61 18.70L6.61 18.70L6.27 18.38L6.27 18.38Q6.68 17.89 6.68 17.55L6.68 17.55L6.68 17.55Q6.68 17.21 6.46 17.02L6.46 17.02L6.46 17.02Q6.24 16.84 5.87 16.84ZM3.58 9.03L3.58 9.03L3.58 9.03Q3.29 9.69 3.29 10.72L3.29 10.72L3.29 10.72Q3.29 11.76 3.58 12.42L3.58 12.42L3.58 12.42Q3.86 13.08 4.42 13.08L4.42 13.08L4.42 13.08Q4.98 13.08 5.27 12.42L5.27 12.42L5.27 12.42Q5.56 11.76 5.56 10.72L5.56 10.72L5.56 10.72Q5.56 9.69 5.27 9.03L5.27 9.03L5.27 9.03Q4.98 8.37 4.42 8.37L4.42 8.37L4.42 8.37Q3.86 8.37 3.58 9.03ZM10.62 14.13L10.62 14.13L10.62 14.13Q9.59 13.06 9.59 11.49L9.59 11.49L9.59 11.49Q9.59 9.93 10.62 8.86L10.62 8.86L10.62 8.86Q11.65 7.78 13.30 7.78L13.30 7.78L13.30 7.78Q14.95 7.78 15.98 8.86L15.98 8.86L15.98 8.86Q17.01 9.93 17.01 11.49L17.01 11.49L17.01 11.49Q17.01 13.06 15.98 14.13L15.98 14.13L15.98 14.13Q14.95 15.20 13.30 15.20L13.30 15.20L13.30 15.20Q11.65 15.20 10.62 14.13ZM12.15 9.25L12.15 9.25L12.15 9.25Q11.76 10.12 11.76 11.49L11.76 11.49L11.76 11.49Q11.76 12.87 12.15 13.74L12.15 13.74L12.15 13.74Q12.54 14.62 13.31 14.62L13.31 14.62L13.31 14.62Q14.08 14.62 14.48 13.74L14.48 13.74L14.48 13.74Q14.87 12.87 14.87 11.49L14.87 11.49L14.87 11.49Q14.87 10.12 14.48 9.25L14.48 9.25L14.48 9.25Q14.08 8.37 13.31 8.37L13.31 8.37L13.31 8.37Q12.54 8.37 12.15 9.25ZM21.76 11.76L21.76 11.76Q22.67 11.68 23.16 11.07L23.16 11.07L23.16 11.07Q23.66 10.46 23.66 9.84L23.66 9.84L23.66 9.84Q23.66 9.21 23.39 8.88L23.39 8.88L23.39 8.88Q23.11 8.54 22.56 8.54L22.56 8.54L22.56 8.54Q22.01 8.54 21.50 9.32L21.50 9.32L21.50 9.32Q21 10.11 21 11.42L21 11.42L21 11.42Q21 12.74 21.48 13.54L21.48 13.54L21.48 13.54Q21.95 14.34 22.83 14.34L22.83 14.34L22.83 14.34Q24.18 14.34 25.12 13.29L25.12 13.29L25.51 13.54L25.51 13.54Q25.03 14.29 24.25 14.75L24.25 14.75L24.25 14.75Q23.46 15.20 22.48 15.20L22.48 15.20L22.48 15.20Q20.82 15.20 19.82 14.11L19.82 14.11L19.82 14.11Q18.83 13.01 18.83 11.45L18.83 11.45L18.83 11.45Q18.83 9.90 19.89 8.84L19.89 8.84L19.89 8.84Q20.94 7.78 22.82 7.78L22.82 7.78L22.82 7.78Q24.05 7.78 24.75 8.36L24.75 8.36L24.75 8.36Q25.45 8.93 25.45 9.81L25.45 9.81L25.45 9.81Q25.45 10.70 24.68 11.45L24.68 11.45L24.68 11.45Q23.90 12.19 22.62 12.19L22.62 12.19L22.62 12.19Q22.19 12.19 21.78 12.10L21.78 12.10L21.76 11.76ZM27.97 8.76L26.82 8.76L26.82 8.19L27.97 8.19L27.97 6.17L30.07 6.17L30.07 8.19L31.65 8.19L31.65 8.76L30.07 8.76L30.07 13.44L30.07 13.44Q30.07 13.82 30.25 14.04L30.25 14.04L30.25 14.04Q30.44 14.25 30.81 14.25L30.81 14.25L30.81 14.25Q31.19 14.25 31.68 13.85L31.68 13.85L31.93 14.18L31.93 14.18Q30.81 15.20 29.69 15.20L29.69 15.20L29.69 15.20Q27.97 15.20 27.97 13.15L27.97 13.15L27.97 8.76ZM35.87 5.14L35.87 5.14L35.87 8.74L35.87 8.74Q36.36 8.20 36.92 7.99L36.92 7.99L36.92 7.99Q37.49 7.78 38.37 7.78L38.37 7.78L38.37 7.78Q39.24 7.78 39.80 8.34L39.80 8.34L39.80 8.34Q40.35 8.89 40.35 9.84L40.35 9.84L40.35 13.44L40.35 13.44Q40.35 13.82 40.53 14.04L40.53 14.04L40.53 14.04Q40.71 14.25 41.09 14.25L41.09 14.25L41.09 14.25Q41.47 14.25 41.96 13.85L41.96 13.85L42.21 14.18L42.21 14.18Q41.09 15.20 39.97 15.20L39.97 15.20L39.97 15.20Q38.25 15.20 38.25 13.15L38.25 13.15L38.25 9.55L38.25 9.55Q38.25 9.11 37.98 8.88L37.98 8.88L37.98 8.88Q37.72 8.64 37.24 8.64L37.24 8.64L37.24 8.64Q36.76 8.64 36.32 9.03L36.32 9.03L36.32 9.03Q35.87 9.42 35.87 10.05L35.87 10.05L35.87 14.99L33.77 14.99L33.77 4.96L33.77 4.96Q33.00 5.15 32.59 5.64L32.59 5.64L32.21 5.21L32.21 5.21Q32.62 4.79 33.24 4.54L33.24 4.54L33.24 4.54Q33.87 4.28 34.48 4.28L34.48 4.28L34.48 4.28Q35.08 4.28 35.48 4.53L35.48 4.53L35.48 4.53Q35.87 4.77 35.87 5.14ZM45.77 11.76L45.77 11.76Q46.68 11.68 47.17 11.07L47.17 11.07L47.17 11.07Q47.67 10.46 47.67 9.84L47.67 9.84L47.67 9.84Q47.67 9.21 47.40 8.88L47.40 8.88L47.40 8.88Q47.12 8.54 46.57 8.54L46.57 8.54L46.57 8.54Q46.02 8.54 45.51 9.32L45.51 9.32L45.51 9.32Q45.01 10.11 45.01 11.42L45.01 11.42L45.01 11.42Q45.01 12.74 45.49 13.54L45.49 13.54L45.49 13.54Q45.96 14.34 46.84 14.34L46.84 14.34L46.84 14.34Q48.19 14.34 49.13 13.29L49.13 13.29L49.52 13.54L49.52 13.54Q49.04 14.29 48.26 14.75L48.26 14.75L48.26 14.75Q47.47 15.20 46.49 15.20L46.49 15.20L46.49 15.20Q44.83 15.20 43.83 14.11L43.83 14.11L43.83 14.11Q42.84 13.01 42.84 11.45L42.84 11.45L42.84 11.45Q42.84 9.90 43.90 8.84L43.90 8.84L43.90 8.84Q44.95 7.78 46.83 7.78L46.83 7.78L46.83 7.78Q48.06 7.78 48.76 8.36L48.76 8.36L48.76 8.36Q49.46 8.93 49.46 9.81L49.46 9.81L49.46 9.81Q49.46 10.70 48.69 11.45L48.69 11.45L48.69 11.45Q47.91 12.19 46.63 12.19L46.63 12.19L46.63 12.19Q46.20 12.19 45.79 12.10L45.79 12.10L45.77 11.76Z"></path></g><!----><g data-v-423bf9ae="" id="b7f0c9b5-64d3-4c31-aedb-5bd52317ea58" transform="matrix(1.4222222566604614,0,0,1.4222222566604614,9.978903770446777,0.9777755737304688)" stroke="none" fill="white"><path d="M66 116a2 2 0 0 0 0 4h14a2 2 0 0 0 0-4z"></path><circle cx="73" cy="37" r="7"></circle><path d="M89.52 106.13c.64-4.31 1.91-10.64 3.41-14.28a57.523 57.523 0 0 1 11.14-17.77A44.066 44.066 0 0 0 116 43.8C116 19.65 96.71 0 73 0a42.206 42.206 0 0 0-9.66 1.13A60.448 60.448 0 0 0 34.6 14.5c-11.71 9.99-23 34.31-14.04 49.67a.564.564 0 0 1 .05.5l-8.2 17.94a1.801 1.801 0 0 0-.08.21 7.217 7.217 0 0 0 .84 6.08c1.33 1.85 3.6 2.84 6.77 2.95l-.92 6.32a2.539 2.539 0 0 0-.01.39 2.972 2.972 0 0 0 .73 1.79 2.63 2.63 0 0 0 1.69.87l2.36.43-1.52 2.01a1.654 1.654 0 0 0-.22.36 2.845 2.845 0 0 0 .13 2.63l1.47 2.51a13.086 13.086 0 0 1 1.3 5.77l-.06 2.47a8.172 8.172 0 0 0 5.19 7.71c3.41 1.37 8.15 1.46 14.07.26a1.243 1.243 0 0 0 .16-.04c.08-.02 8.51-2.37 14.59 1.41a8.165 8.165 0 0 0 4.29 1.26H80a1.985 1.985 0 1 0 0-3.97H63.19a4.208 4.208 0 0 1-2.17-.65c-7.29-4.54-16.67-2.17-17.74-1.88-6.35 1.27-9.87.67-11.7-.07a4.22 4.22 0 0 1-2.69-3.96l.06-2.47a17.022 17.022 0 0 0-1.84-7.84l-1.09-1.85 2.22-2.93a1.93 1.93 0 0 0 .22-.36 2.853 2.853 0 0 0-.97-3.54 1.905 1.905 0 0 0-.79-.33l-3.54-.65.82-5.65a2.546 2.546 0 0 0 .02-.39 3.513 3.513 0 0 0-3.73-3.57c-1.34-.03-3.1-.27-3.84-1.28a3.31 3.31 0 0 1-.31-2.51l8.15-17.82c.04-.09.06-.19.1-.28H26a2 2 0 0 0 0-4h-2c-.02 0-.04.01-.06.01-7.65-13.43 2.88-35.64 13.26-44.51 1.19-1.01 2.46-1.96 3.77-2.88a44.352 44.352 0 0 0-5.3 50.9 6.602 6.602 0 0 1 .38-.75c0-.01.01-.02.01-.03a4.67 4.67 0 0 1 .3-.47 1.527 1.527 0 0 1 .17-.27.442.442 0 0 1 .08-.11 9.324 9.324 0 0 1 1.03-1.23l1.02-1.02a9.602 9.602 0 0 1 6.73-2.8h.09a9.54 9.54 0 0 1 6.8-2.84h1.44a9.54 9.54 0 0 1 6.8 2.84h.09a9.584 9.584 0 0 1 6.73 2.8l1.02 1.02a9.535 9.535 0 0 1 2.8 6.82 9.54 9.54 0 0 1 2.84 6.8v1.44a9.54 9.54 0 0 1-2.84 6.8 9.535 9.535 0 0 1-2.8 6.82l-1.02 1.02a9.62 9.62 0 0 1-6.73 2.8h-.09a9.506 9.506 0 0 1-5.59 2.75.037.037 0 0 1-.03.01 97.33 97.33 0 0 1 1.58 8.21 6.71 6.71 0 0 0 6.6 5.87h19.84a6.71 6.71 0 0 0 6.6-5.87zm-8.46-50.46c-.19.08-.37.16-.56.23v.03A6.21 6.21 0 0 1 74.17 62h-2.33a6.212 6.212 0 0 1-6.34-6.07v-.03c-.19-.07-.37-.15-.56-.23l-.02.02a5.944 5.944 0 0 1-4.22 1.73 6.543 6.543 0 0 1-4.56-1.92l-1.64-1.64a6.545 6.545 0 0 1-1.91-4.19 6.02 6.02 0 0 1 1.72-4.59l.02-.02c-.08-.19-.15-.37-.23-.56h-.03A6.21 6.21 0 0 1 48 38.17v-2.34a6.21 6.21 0 0 1 6.07-6.33h.03c.08-.19.15-.37.23-.56l-.02-.02a5.998 5.998 0 0 1-1.72-4.58 6.522 6.522 0 0 1 1.91-4.19l1.65-1.65a6.501 6.501 0 0 1 4.55-1.92 5.895 5.895 0 0 1 4.22 1.74l.02.01c.19-.08.37-.15.56-.23v-.03A6.212 6.212 0 0 1 71.84 12h2.33a6.21 6.21 0 0 1 6.33 6.07v.03c.19.08.38.15.56.23l.02-.01a5.895 5.895 0 0 1 4.22-1.74 6.466 6.466 0 0 1 4.55 1.92l1.66 1.65a6.227 6.227 0 0 1 .18 8.77l-.02.02c.08.19.16.37.23.56h.02A6.218 6.218 0 0 1 98 35.83v2.34a6.218 6.218 0 0 1-6.08 6.33h-.02c-.07.19-.15.38-.23.56l.02.02a6.218 6.218 0 0 1-.19 8.77l-1.65 1.65a6.466 6.466 0 0 1-4.55 1.92 5.961 5.961 0 0 1-4.22-1.73z"></path><path d="M87.02 52.68l1.66-1.66a2.217 2.217 0 0 0 .18-3.11l-2.1-2.11a16.323 16.323 0 0 0 2.19-5.3h2.97A2.213 2.213 0 0 0 94 38.17v-2.34a2.213 2.213 0 0 0-2.08-2.33h-2.97a16.323 16.323 0 0 0-2.19-5.3l2.1-2.11a2.217 2.217 0 0 0-.18-3.11l-1.66-1.65a2.427 2.427 0 0 0-1.72-.75 1.95 1.95 0 0 0-1.39.56l-2.11 2.11a16.037 16.037 0 0 0-5.3-2.2v-2.98A2.212 2.212 0 0 0 74.17 16h-2.33a2.215 2.215 0 0 0-2.34 2.07v2.98a16.126 16.126 0 0 0-5.3 2.2l-2.11-2.11a1.95 1.95 0 0 0-1.39-.56 2.427 2.427 0 0 0-1.72.75l-1.65 1.65a2.2 2.2 0 0 0-.19 3.11l2.11 2.11a16.125 16.125 0 0 0-2.2 5.3h-2.98A2.212 2.212 0 0 0 52 35.83v2.34a2.212 2.212 0 0 0 2.07 2.33h2.98a16.126 16.126 0 0 0 2.2 5.3l-2.11 2.11a2.2 2.2 0 0 0 .19 3.11l1.65 1.66a2.457 2.457 0 0 0 1.72.74 1.95 1.95 0 0 0 1.39-.56l2.11-2.11a16.128 16.128 0 0 0 5.3 2.2v2.98A2.215 2.215 0 0 0 71.84 58h2.33a2.212 2.212 0 0 0 2.33-2.07v-2.98a16.04 16.04 0 0 0 5.3-2.2l2.11 2.11a1.95 1.95 0 0 0 1.39.56 2.457 2.457 0 0 0 1.72-.74zM73 48a11 11 0 1 1 11-11 11 11 0 0 1-11 11zM38.85 84.93a5.526 5.526 0 0 0 1.62 3.59l1.02 1.01a5.556 5.556 0 0 0 3.9 1.63 5.413 5.413 0 0 0 1.89-.34 5.46 5.46 0 0 0 5 3.18h1.44a5.452 5.452 0 0 0 5-3.19 5.2 5.2 0 0 0 1.89.35 5.556 5.556 0 0 0 3.9-1.63l1.02-1.02a5.468 5.468 0 0 0 1.28-5.79 5.468 5.468 0 0 0 3.19-5v-1.44a5.452 5.452 0 0 0-3.19-5 5.468 5.468 0 0 0-1.28-5.79l-1.02-1.02a5.52 5.52 0 0 0-3.9-1.63 5.199 5.199 0 0 0-1.89.35 5.452 5.452 0 0 0-5-3.19h-1.44a5.452 5.452 0 0 0-5 3.19 5.199 5.199 0 0 0-1.89-.35 5.556 5.556 0 0 0-3.9 1.63l-1.02 1.02a5.48 5.48 0 0 0-1.62 3.58 5.159 5.159 0 0 0 .34 2.21 5.452 5.452 0 0 0-3.19 5v1.44a5.452 5.452 0 0 0 3.19 5 5.159 5.159 0 0 0-.34 2.21zM40 76.28a1.371 1.371 0 0 1 1.28-1.45h1.84a10.015 10.015 0 0 1 1.37-3.28l-1.31-1.3a1.369 1.369 0 0 1 .12-1.93l1.02-1.02a1.487 1.487 0 0 1 1.07-.46 1.2 1.2 0 0 1 .86.34l1.3 1.31a9.786 9.786 0 0 1 3.28-1.36v-1.85A1.371 1.371 0 0 1 52.28 64h1.44a1.371 1.371 0 0 1 1.45 1.28v1.85a9.786 9.786 0 0 1 3.28 1.36l1.3-1.31a1.2 1.2 0 0 1 .86-.34 1.487 1.487 0 0 1 1.07.46l1.02 1.02a1.369 1.369 0 0 1 .12 1.93l-1.3 1.3a10.215 10.215 0 0 1 1.36 3.28h1.84A1.378 1.378 0 0 1 66 76.28v1.44a1.378 1.378 0 0 1-1.28 1.45h-1.84a10.216 10.216 0 0 1-1.36 3.28l1.3 1.3a1.369 1.369 0 0 1-.12 1.93l-1.02 1.02a1.487 1.487 0 0 1-1.07.46 1.2 1.2 0 0 1-.86-.34l-1.3-1.31a10.017 10.017 0 0 1-3.28 1.37v1.84A1.378 1.378 0 0 1 53.72 90h-1.44a1.378 1.378 0 0 1-1.45-1.28v-1.84a10.017 10.017 0 0 1-3.28-1.37l-1.3 1.31a1.2 1.2 0 0 1-.86.34 1.487 1.487 0 0 1-1.07-.46l-1.02-1.02a1.369 1.369 0 0 1-.12-1.93l1.31-1.3a10.016 10.016 0 0 1-1.37-3.28h-1.84A1.371 1.371 0 0 1 40 77.72z"></path><circle cx="53" cy="77" r="7"></circle></g><!----></svg>