<svg data-v-fde0c5aa="" xmlns="http://www.w3.org/2000/svg" viewBox="0 0 300 300" class="font"><!----><defs data-v-fde0c5aa=""><!----></defs><rect data-v-fde0c5aa="" fill="#000000" x="0" y="0" width="300px" height="300px" class="logo-background-square"></rect><defs data-v-fde0c5aa=""><!----></defs><g data-v-fde0c5aa="" id="10587707-2922-4b34-8b85-141852579164" fill="#BD20D0" transform="matrix(4.5456013679504395,0,0,4.5456013679504395,34.903954802259875,97.76997578692493)"><path d="M5.87 16.84L5.87 16.84L3.28 16.84L3.28 16.84Q1.22 16.84 1.22 15.12L1.22 15.12L1.22 15.12Q1.22 14.18 2.25 13.01L2.25 13.01L2.25 13.01Q1.12 12.18 1.12 10.72L1.12 10.72L1.12 10.72Q1.12 9.48 2.03 8.63L2.03 8.63L2.03 8.63Q2.94 7.78 4.41 7.78L4.41 7.78L4.41 7.78Q5.47 7.78 6.30 8.27L6.30 8.27L6.30 8.27Q6.90 7.73 7.13 6.85L7.13 6.85L7.67 6.99L7.67 6.99Q7.42 7.97 6.75 8.61L6.75 8.61L6.75 8.61Q7.70 9.48 7.70 10.72L7.70 10.72L7.70 10.72Q7.70 11.97 6.79 12.82L6.79 12.82L6.79 12.82Q5.88 13.66 4.41 13.66L4.41 13.66L4.41 13.66Q3.40 13.66 2.66 13.26L2.66 13.26L2.66 13.26Q2.17 13.94 2.17 14.29L2.17 14.29L2.17 14.29Q2.17 14.99 2.98 14.99L2.98 14.99L5.57 14.99L5.57 14.99Q7.63 14.99 7.63 16.51L7.63 16.51L7.63 16.51Q7.63 17.58 6.61 18.70L6.61 18.70L6.27 18.38L6.27 18.38Q6.68 17.89 6.68 17.55L6.68 17.55L6.68 17.55Q6.68 17.21 6.46 17.02L6.46 17.02L6.46 17.02Q6.24 16.84 5.87 16.84ZM3.58 9.03L3.58 9.03L3.58 9.03Q3.29 9.69 3.29 10.72L3.29 10.72L3.29 10.72Q3.29 11.76 3.58 12.42L3.58 12.42L3.58 12.42Q3.86 13.08 4.42 13.08L4.42 13.08L4.42 13.08Q4.98 13.08 5.27 12.42L5.27 12.42L5.27 12.42Q5.56 11.76 5.56 10.72L5.56 10.72L5.56 10.72Q5.56 9.69 5.27 9.03L5.27 9.03L5.27 9.03Q4.98 8.37 4.42 8.37L4.42 8.37L4.42 8.37Q3.86 8.37 3.58 9.03ZM10.62 14.13L10.62 14.13L10.62 14.13Q9.59 13.06 9.59 11.49L9.59 11.49L9.59 11.49Q9.59 9.93 10.62 8.86L10.62 8.86L10.62 8.86Q11.65 7.78 13.30 7.78L13.30 7.78L13.30 7.78Q14.95 7.78 15.98 8.86L15.98 8.86L15.98 8.86Q17.01 9.93 17.01 11.49L17.01 11.49L17.01 11.49Q17.01 13.06 15.98 14.13L15.98 14.13L15.98 14.13Q14.95 15.20 13.30 15.20L13.30 15.20L13.30 15.20Q11.65 15.20 10.62 14.13ZM12.15 9.25L12.15 9.25L12.15 9.25Q11.76 10.12 11.76 11.49L11.76 11.49L11.76 11.49Q11.76 12.87 12.15 13.74L12.15 13.74L12.15 13.74Q12.54 14.62 13.31 14.62L13.31 14.62L13.31 14.62Q14.08 14.62 14.48 13.74L14.48 13.74L14.48 13.74Q14.87 12.87 14.87 11.49L14.87 11.49L14.87 11.49Q14.87 10.12 14.48 9.25L14.48 9.25L14.48 9.25Q14.08 8.37 13.31 8.37L13.31 8.37L13.31 8.37Q12.54 8.37 12.15 9.25ZM21.76 11.76L21.76 11.76Q22.67 11.68 23.16 11.07L23.16 11.07L23.16 11.07Q23.66 10.46 23.66 9.84L23.66 9.84L23.66 9.84Q23.66 9.21 23.39 8.88L23.39 8.88L23.39 8.88Q23.11 8.54 22.56 8.54L22.56 8.54L22.56 8.54Q22.01 8.54 21.50 9.32L21.50 9.32L21.50 9.32Q21 10.11 21 11.42L21 11.42L21 11.42Q21 12.74 21.48 13.54L21.48 13.54L21.48 13.54Q21.95 14.34 22.83 14.34L22.83 14.34L22.83 14.34Q24.18 14.34 25.12 13.29L25.12 13.29L25.51 13.54L25.51 13.54Q25.03 14.29 24.25 14.75L24.25 14.75L24.25 14.75Q23.46 15.20 22.48 15.20L22.48 15.20L22.48 15.20Q20.82 15.20 19.82 14.11L19.82 14.11L19.82 14.11Q18.83 13.01 18.83 11.45L18.83 11.45L18.83 11.45Q18.83 9.90 19.89 8.84L19.89 8.84L19.89 8.84Q20.94 7.78 22.82 7.78L22.82 7.78L22.82 7.78Q24.05 7.78 24.75 8.36L24.75 8.36L24.75 8.36Q25.45 8.93 25.45 9.81L25.45 9.81L25.45 9.81Q25.45 10.70 24.68 11.45L24.68 11.45L24.68 11.45Q23.90 12.19 22.62 12.19L22.62 12.19L22.62 12.19Q22.19 12.19 21.78 12.10L21.78 12.10L21.76 11.76ZM27.97 8.76L26.82 8.76L26.82 8.19L27.97 8.19L27.97 6.17L30.07 6.17L30.07 8.19L31.65 8.19L31.65 8.76L30.07 8.76L30.07 13.44L30.07 13.44Q30.07 13.82 30.25 14.04L30.25 14.04L30.25 14.04Q30.44 14.25 30.81 14.25L30.81 14.25L30.81 14.25Q31.19 14.25 31.68 13.85L31.68 13.85L31.93 14.18L31.93 14.18Q30.81 15.20 29.69 15.20L29.69 15.20L29.69 15.20Q27.97 15.20 27.97 13.15L27.97 13.15L27.97 8.76ZM35.87 5.14L35.87 5.14L35.87 8.74L35.87 8.74Q36.36 8.20 36.92 7.99L36.92 7.99L36.92 7.99Q37.49 7.78 38.37 7.78L38.37 7.78L38.37 7.78Q39.24 7.78 39.80 8.34L39.80 8.34L39.80 8.34Q40.35 8.89 40.35 9.84L40.35 9.84L40.35 13.44L40.35 13.44Q40.35 13.82 40.53 14.04L40.53 14.04L40.53 14.04Q40.71 14.25 41.09 14.25L41.09 14.25L41.09 14.25Q41.47 14.25 41.96 13.85L41.96 13.85L42.21 14.18L42.21 14.18Q41.09 15.20 39.97 15.20L39.97 15.20L39.97 15.20Q38.25 15.20 38.25 13.15L38.25 13.15L38.25 9.55L38.25 9.55Q38.25 9.11 37.98 8.88L37.98 8.88L37.98 8.88Q37.72 8.64 37.24 8.64L37.24 8.64L37.24 8.64Q36.76 8.64 36.32 9.03L36.32 9.03L36.32 9.03Q35.87 9.42 35.87 10.05L35.87 10.05L35.87 14.99L33.77 14.99L33.77 4.96L33.77 4.96Q33.00 5.15 32.59 5.64L32.59 5.64L32.21 5.21L32.21 5.21Q32.62 4.79 33.24 4.54L33.24 4.54L33.24 4.54Q33.87 4.28 34.48 4.28L34.48 4.28L34.48 4.28Q35.08 4.28 35.48 4.53L35.48 4.53L35.48 4.53Q35.87 4.77 35.87 5.14ZM45.77 11.76L45.77 11.76Q46.68 11.68 47.17 11.07L47.17 11.07L47.17 11.07Q47.67 10.46 47.67 9.84L47.67 9.84L47.67 9.84Q47.67 9.21 47.40 8.88L47.40 8.88L47.40 8.88Q47.12 8.54 46.57 8.54L46.57 8.54L46.57 8.54Q46.02 8.54 45.51 9.32L45.51 9.32L45.51 9.32Q45.01 10.11 45.01 11.42L45.01 11.42L45.01 11.42Q45.01 12.74 45.49 13.54L45.49 13.54L45.49 13.54Q45.96 14.34 46.84 14.34L46.84 14.34L46.84 14.34Q48.19 14.34 49.13 13.29L49.13 13.29L49.52 13.54L49.52 13.54Q49.04 14.29 48.26 14.75L48.26 14.75L48.26 14.75Q47.47 15.20 46.49 15.20L46.49 15.20L46.49 15.20Q44.83 15.20 43.83 14.11L43.83 14.11L43.83 14.11Q42.84 13.01 42.84 11.45L42.84 11.45L42.84 11.45Q42.84 9.90 43.90 8.84L43.90 8.84L43.90 8.84Q44.95 7.78 46.83 7.78L46.83 7.78L46.83 7.78Q48.06 7.78 48.76 8.36L48.76 8.36L48.76 8.36Q49.46 8.93 49.46 9.81L49.46 9.81L49.46 9.81Q49.46 10.70 48.69 11.45L48.69 11.45L48.69 11.45Q47.91 12.19 46.63 12.19L46.63 12.19L46.63 12.19Q46.20 12.19 45.79 12.10L45.79 12.10L45.77 11.76Z"></path></g><!----><!----></svg>